# xmcd
# Track frame offsets:
# 150
# 12222
# 27560
# 45725
# 58297
# 72162
# 87812
# 100257
# 116477
# 131882
# 148552
#
# Disc length: 2124 seconds
# Revision: 0
# Processed by: cddbd v1.4PL0 Copyright (c) Steve Scherf et al.
# Submitted via: VisiTrax 2.9.5.180 - For more info visit www.synapsa.com
#
DISCID=9b084a0b
DTITLE=Roger Cooper - Songs in my heart
DYEAR=1995
DGENRE=Irsk
TTITLE0=Honky tonk amnesia
TTITLE1=What you see is what you get
TTITLE2=My dreams just came true
TTITLE3=I'll break out again tonight
TTITLE4=Jimmy Rogers medley
TTITLE5=Helen's arms
TTITLE6=Song in my heart
TTITLE7=Love sometimes paints a rainbow
TTITLE8=Kickin' dirt on me
TTITLE9=The right to be wrong
TTITLE10=Too late to start quittin' now
EXTD=
EXTT0=
EXTT1=
EXTT2=
EXTT3=
EXTT4=
EXTT5=
EXTT6=
EXTT7=
EXTT8=
EXTT9=
EXTT10=
PLAYORDER=
